<svg width="24" height="24" viewBox="0 0 24 24" fill="none" xmlns="http://www.w3.org/2000/svg">
<rect width="24" height="24" fill="black" fill-opacity="0"/>
<mask id="mask0" mask-type="alpha" maskUnits="userSpaceOnUse" x="0" y="0" width="24" height="24">
<circle cx="12" cy="12" r="12" fill="#C4C4C4"/>
</mask>
<g mask="url(#mask0)">
<circle cx="12" cy="12" r="12" fill="#FF0000"/>
<rect width="18" height="18" fill="black" fill-opacity="0" transform="translate(3 1)"/>
<rect width="180" height="180" fill="black" fill-opacity="0" transform="translate(3 19) scale(0.1 -0.1)"/>
<path d="M12.9741 1.01516C12.9393 1.02503 12.8573 1.0349 12.7927 1.03737C12.5342 1.0423 11.6992 1.252 11.396 1.38522C11.3686 1.39756 11.2916 1.42963 11.222 1.45676C11.0406 1.52584 10.5609 1.75281 10.4863 1.80709C10.4515 1.82929 10.3944 1.85889 10.3571 1.86629C10.3198 1.87616 10.29 1.89343 10.29 1.9033C10.29 1.91317 10.2701 1.92797 10.2478 1.93784C10.2229 1.94524 10.1707 1.97484 10.1285 2.00198C10.0887 2.02912 10.0291 2.06119 9.99674 2.07599C9.96443 2.08833 9.9023 2.1278 9.85757 2.16234C9.81283 2.19688 9.7681 2.22402 9.76064 2.22402C9.70348 2.22402 8.90322 2.8013 8.67706 3.0036C8.49315 3.16889 8.15266 3.52908 8.15266 3.55869C8.15266 3.56609 8.13029 3.60063 8.10047 3.6327C8.02591 3.71658 7.80224 4.0669 7.73762 4.19765C7.71028 4.25933 7.65561 4.36788 7.62081 4.44189C7.49903 4.68859 7.44933 4.9575 7.46175 5.27082C7.47667 5.5792 7.54625 5.73955 7.7575 5.95172C7.97869 6.17129 8.21479 6.2675 8.58759 6.28724C8.84357 6.29957 9.02748 6.27984 9.28347 6.20829C9.36548 6.18609 9.47483 6.15895 9.52702 6.14415C9.57921 6.13181 9.63886 6.11208 9.66371 6.09728C9.72088 6.06767 10.0415 5.92458 10.0564 5.92458C10.1011 5.92458 10.6255 5.60633 11.1101 5.28562C11.4307 5.07345 11.7116 4.88842 11.7364 4.87609C11.7588 4.86129 11.9104 4.77247 12.072 4.67626C12.2335 4.58251 12.4323 4.46903 12.5143 4.42709C12.5963 4.38515 12.7132 4.32347 12.7753 4.2914C12.8374 4.26179 12.9542 4.20752 13.0362 4.17791C13.1183 4.14584 13.2202 4.1039 13.2599 4.08663C13.3022 4.06936 13.3618 4.04223 13.3966 4.02742C13.4935 3.98795 13.7122 3.94848 13.926 3.93368C14.3882 3.90407 14.7113 4.10637 14.8778 4.5307C14.9176 4.63185 14.9251 4.71573 14.9251 5.01178C14.9251 5.37196 14.8927 5.56933 14.7958 5.80123C14.7759 5.8481 14.7486 5.91471 14.7337 5.94925C14.6094 6.2453 14.3534 6.66963 14.0602 7.05449C13.7818 7.42455 13.1829 8.03884 12.7877 8.36202C12.651 8.47551 12.4994 8.59886 12.4522 8.63833C12.3478 8.72468 12.226 8.81102 12.0918 8.89984C12.0372 8.93438 11.9477 8.99359 11.893 9.03306C11.7389 9.13667 11.3289 9.35377 11.0977 9.45246C11.0306 9.48206 10.9387 9.52153 10.8939 9.54127C10.8517 9.56101 10.7945 9.57581 10.7672 9.57581C10.7423 9.57581 10.6852 9.58814 10.6404 9.60295C10.4789 9.65969 10.3149 9.55114 10.3149 9.38585C10.3149 9.18355 10.4118 9.05526 11.0232 8.4533C11.6842 7.802 11.7563 7.70579 11.7563 7.45908C11.7563 7.20498 11.6345 7.03229 11.3612 6.89413C11.2419 6.83245 11.1971 6.82505 10.9884 6.82505C10.7448 6.82505 10.6032 6.85959 10.4267 6.96567C10.3869 6.99035 10.3248 7.02242 10.29 7.03969C10.2552 7.05696 10.2229 7.07669 10.2154 7.08409C10.208 7.09149 10.1583 7.1285 10.1036 7.17044C9.97189 7.26912 9.74076 7.50349 9.60904 7.67372C9.51708 7.79213 9.44998 7.90315 9.29341 8.19426C9.16417 8.43603 9.04736 8.88504 9.04736 9.14654C9.04736 9.67696 9.32572 10.1013 9.75567 10.2222C9.8849 10.2592 10.4118 10.2592 10.5932 10.2246C10.7721 10.1876 11.2394 10.0445 11.2692 10.0174C11.2841 10.0051 11.309 9.99521 11.3289 9.99521C11.3935 9.99521 12.1316 9.62268 12.3851 9.45986C12.4423 9.42285 12.5069 9.38091 12.5317 9.36611C12.5541 9.35377 12.6709 9.28223 12.7927 9.20822C12.912 9.13421 13.0164 9.06513 13.0238 9.05773C13.0313 9.04786 13.1158 8.98618 13.2102 8.92204C13.3071 8.85543 13.419 8.77895 13.4587 8.75182C13.501 8.72221 13.6178 8.6334 13.7197 8.55198C14.3659 8.04131 14.9375 7.49609 15.2705 7.07176C15.3252 7.00515 15.3749 6.94347 15.3823 6.93607C15.4022 6.92127 15.5712 6.6795 15.688 6.49694C15.7402 6.42046 15.8198 6.28477 15.8645 6.19596C15.9117 6.10714 15.9763 5.98626 16.0086 5.92458C16.0409 5.86291 16.1105 5.70255 16.1652 5.56686C16.2174 5.43117 16.2696 5.29795 16.2795 5.27082C16.3491 5.09566 16.456 4.64419 16.5032 4.321C16.5554 3.95588 16.5156 3.35639 16.4137 3.0258C16.3715 2.89012 16.3615 2.86545 16.2696 2.66808C16.0708 2.24375 15.7527 1.85889 15.3873 1.60725C15.3376 1.57272 15.2755 1.52584 15.2481 1.4987C15.1587 1.41976 14.7039 1.21746 14.4379 1.14098C14.2963 1.09904 14.085 1.05464 13.9682 1.03737C13.6998 1.00283 13.0561 0.985559 12.9741 1.01516Z" fill="white"/>
<path d="M7.7302 12.704C7.54132 12.8003 7.48416 12.8471 7.40214 12.968C7.32261 13.0889 7.32013 13.0988 7.32013 13.3504V13.6119L7.41457 13.7402C7.52641 13.8907 7.60097 13.945 7.76499 14.0017C7.98618 14.0732 8.17755 14.0461 8.39874 13.908C8.66467 13.7402 8.75662 13.3109 8.59508 12.9952C8.53792 12.8841 8.48821 12.8323 8.3391 12.7386C8.20489 12.6522 7.86441 12.6325 7.7302 12.704Z" fill="white"/>
<path d="M20.1789 13.2149C20.1715 13.2198 20.0572 13.242 19.9205 13.2642C19.7838 13.2839 19.5601 13.3209 19.4234 13.3456L19.1749 13.3875V15.6572C19.1749 18.1218 19.1699 18.0182 19.3165 18.3266C19.3663 18.4327 19.4358 18.5239 19.5427 18.6201C19.8061 18.8595 20.0522 18.9335 20.5766 18.9359C21.0239 18.9359 21.0065 18.9532 20.9966 18.5437L20.9891 18.2476L20.7978 18.2304C20.4573 18.2008 20.2933 18.0651 20.256 17.7838C20.246 17.6999 20.2386 16.644 20.2411 15.4401C20.2436 13.3555 20.2386 13.1556 20.1789 13.2149Z" fill="white"/>
<path d="M13.2972 13.2642C12.7454 13.3456 12.5615 13.3801 12.5392 13.4072C12.5218 13.427 12.5193 14.214 12.5267 15.7189C12.5392 17.8208 12.5441 18.0108 12.5839 18.1119C12.6783 18.3512 12.728 18.4351 12.8548 18.5609C13.1157 18.8199 13.4488 18.926 13.9955 18.926C14.2987 18.926 14.341 18.9211 14.3609 18.8816C14.3857 18.8347 14.3981 18.4055 14.3783 18.3068C14.3634 18.2451 14.3534 18.2427 14.167 18.2279C13.9309 18.213 13.7917 18.1341 13.6948 17.9639L13.6327 17.8529L13.6252 16.5749C13.6203 15.6227 13.6252 15.2871 13.6476 15.26C13.67 15.2329 13.7545 15.2255 14.0204 15.2255C14.4305 15.2255 14.3957 15.2649 14.3857 14.7937L14.3783 14.473L14.0303 14.4607C13.839 14.4533 13.6675 14.4385 13.6526 14.4286C13.6277 14.4138 13.6203 14.2633 13.6203 13.8168V13.2272L13.5656 13.2296C13.5333 13.2321 13.414 13.2469 13.2972 13.2642Z" fill="white"/>
<path d="M4.6857 14.3766C4.49931 14.3939 4.05195 14.5 3.91526 14.5592C3.88793 14.5715 3.83822 14.5888 3.80343 14.5987C3.69407 14.6283 3.33122 14.8084 3.33122 14.833C3.33122 14.8454 3.35359 14.9021 3.37844 14.9613C3.54247 15.319 3.6046 15.4473 3.61703 15.4473C3.62449 15.4473 3.64934 15.4375 3.67419 15.4251C3.80094 15.361 3.95503 15.2993 4.07681 15.2623C4.15137 15.2401 4.24084 15.2105 4.27563 15.1981C4.41481 15.1488 4.78511 15.1241 4.9566 15.1513C5.2946 15.2055 5.41886 15.361 5.43874 15.7582C5.44868 15.9777 5.44868 15.9827 5.39152 15.9975C5.35921 16.0073 5.13057 16.0147 4.88452 16.0147C4.29303 16.0147 4.1116 16.0493 3.72887 16.2343C3.40081 16.3922 3.15725 16.6907 3.04044 17.0756C2.9808 17.2803 2.98825 17.6627 3.05536 17.865C3.27903 18.5361 3.81088 18.9283 4.5515 18.9678C5.22501 19.0048 5.9184 18.805 6.36327 18.4497L6.52481 18.319L6.53227 17.0139C6.53972 15.5016 6.53724 15.4498 6.35333 15.0797C6.27131 14.912 5.99544 14.6455 5.82396 14.5715C5.74443 14.5345 5.65745 14.4975 5.63011 14.4852C5.44371 14.4038 4.97151 14.3495 4.6857 14.3766ZM5.41886 16.7549C5.43377 16.7746 5.44371 17.0682 5.44371 17.4234C5.44371 18.1241 5.45365 18.0797 5.26974 18.1759C5.20015 18.2129 5.12311 18.2203 4.88204 18.2227H4.58132L4.45706 18.1389C4.38995 18.0945 4.31042 18.0204 4.28309 17.9785C4.09917 17.7121 4.1116 17.2359 4.30545 17.0016C4.36261 16.93 4.58132 16.7795 4.62108 16.7795C4.64594 16.7795 4.67327 16.7697 4.68819 16.7573C4.72298 16.7203 4.8373 16.7104 5.12808 16.7154C5.33685 16.7178 5.40146 16.7252 5.41886 16.7549Z" fill="white"/>
<path d="M10.8864 14.4359C10.3919 14.5519 9.99672 14.7616 9.59907 15.1217L9.49469 15.2155V17.0164C9.49469 18.0057 9.49469 18.8346 9.49469 18.8593C9.49469 18.8988 9.53197 18.9013 10.0365 18.8963L10.5758 18.8889L10.5832 17.1694L10.5882 15.4523L10.6827 15.3783C10.7945 15.2895 10.8492 15.2624 10.9933 15.213C11.1648 15.1563 11.4332 15.1291 11.6345 15.1514C11.7339 15.1612 11.8284 15.1662 11.8433 15.1588C11.8607 15.1538 11.9054 15.0699 11.9452 14.9713C11.9825 14.8726 12.0421 14.7443 12.0719 14.6851C12.1539 14.5297 12.1465 14.4902 12.0371 14.4655C11.9849 14.4532 11.8905 14.431 11.8234 14.4162C11.6469 14.3718 11.1076 14.3841 10.8864 14.4359Z" fill="white"/>
<path d="M16.2919 14.4409C16.2099 14.4532 16.1329 14.4754 16.1204 14.4878C16.1055 14.5001 16.0807 14.51 16.0608 14.51C16.0409 14.51 15.9514 14.5445 15.8645 14.5889C15.6731 14.6827 15.3798 14.9516 15.2556 15.1514C15.1462 15.3266 15.0195 15.5881 14.9996 15.6818C14.9896 15.7213 14.9747 15.778 14.9623 15.8052C14.9524 15.8323 14.9225 15.9384 14.8977 16.0395C14.8306 16.306 14.8306 17.1596 14.8952 17.4088C14.9548 17.6382 15.0891 17.9885 15.1139 17.9885C15.1263 17.9885 15.1363 18.0008 15.1363 18.0156C15.1363 18.1094 15.432 18.4819 15.6408 18.6497C15.7327 18.7237 15.939 18.8298 16.0931 18.8816C16.2596 18.9383 16.6274 19 16.7915 19C17.1444 19 17.7806 18.8495 17.9919 18.7163C18.0416 18.6867 18.1087 18.6521 18.1435 18.6423C18.218 18.6201 18.3821 18.5189 18.4019 18.4844C18.4243 18.4498 18.146 17.8898 18.1087 17.8898C18.0913 17.8898 18.0465 17.912 18.0117 17.9392C17.977 17.9663 17.9347 17.9885 17.9148 17.9885C17.8974 17.9885 17.8601 18.0033 17.8328 18.0231C17.8055 18.0403 17.6762 18.0921 17.547 18.1365C17.3258 18.213 17.2885 18.2179 16.963 18.2204C16.6548 18.2204 16.6026 18.2155 16.5032 18.1686C16.1552 18.0033 15.9564 17.5864 15.9564 17.0239C15.9564 16.903 15.9589 16.8019 15.9639 16.7994C15.9664 16.7945 16.5181 16.7871 17.1866 16.7797L18.4044 16.7673L18.397 16.5206C18.3821 16.0371 18.2528 15.3858 18.141 15.2378C18.131 15.223 18.0962 15.1613 18.0639 15.0996C17.9297 14.8356 17.6464 14.6087 17.3109 14.4976C17.0649 14.4138 16.615 14.3891 16.2919 14.4409ZM16.8263 15.2254C16.9306 15.2526 17.1494 15.4277 17.1494 15.482C17.1494 15.4968 17.1668 15.5412 17.1866 15.5782C17.2438 15.6892 17.2885 16.0543 17.2488 16.1012C17.2239 16.1333 17.127 16.1382 16.625 16.1382H16.031L16.0161 16.0766C15.9838 15.9507 16.0707 15.6127 16.1702 15.482C16.2795 15.3364 16.3764 15.2624 16.5206 15.2205C16.6001 15.1983 16.6771 15.1835 16.6945 15.1884C16.7095 15.1934 16.7691 15.2106 16.8263 15.2254Z" fill="white"/>
<path d="M8.33908 14.4851C8.29932 14.4974 8.18748 14.5197 8.09055 14.532C7.99611 14.5443 7.82214 14.569 7.70533 14.5863C7.58852 14.6011 7.48663 14.6233 7.4742 14.6307C7.45183 14.6504 7.44935 18.8419 7.46923 18.8789C7.47917 18.8913 7.70036 18.9011 7.99114 18.9011C8.49814 18.9011 8.50062 18.9011 8.51305 18.8444C8.52051 18.8148 8.52299 17.8181 8.52051 16.6314C8.51305 14.4925 8.51305 14.4728 8.46334 14.4678C8.43601 14.4654 8.38133 14.4728 8.33908 14.4851Z" fill="white"/>
</g>
</svg>
