<svg width="24" height="24" viewBox="0 0 24 24" fill="none" xmlns="http://www.w3.org/2000/svg">
<rect width="24" height="24" fill="black" fill-opacity="0" transform="translate(24 24) scale(-1 1) rotate(-90)"/>
<path fill-rule="evenodd" clip-rule="evenodd" d="M17.2927 13.2927C17.6827 12.9017 18.3167 12.9017 18.7067 13.2927C19.0977 13.6827 19.0977 14.3168 18.7067 14.7067L12.7067 20.7068C12.3158 21.0978 11.6827 21.0978 11.2927 20.7068L5.29275 14.7068C4.90175 14.3168 4.90175 13.6828 5.29275 13.2928C5.68275 12.9018 6.31575 12.9018 6.70675 13.2928L10.9997 17.5858L10.9997 3.99975C10.9997 3.44775 11.4477 2.99975 11.9997 2.99975C12.5517 2.99975 12.9997 3.44775 12.9997 3.99975L12.9997 17.5858L17.2927 13.2927Z" fill="#23292F"/>
</svg>
