<svg width="23" height="16" viewBox="0 0 23 16" fill="none" xmlns="http://www.w3.org/2000/svg">
<path fill-rule="evenodd" clip-rule="evenodd" d="M11.2929 1.29289C11.6834 0.902369 12.3166 0.902369 12.7071 1.29289L18.7071 7.29289C19.0976 7.68342 19.0976 8.31658 18.7071 8.70711L12.7071 14.7071C12.3166 15.0976 11.6834 15.0976 11.2929 14.7071C10.9024 14.3166 10.9024 13.6834 11.2929 13.2929L16.5858 8L11.2929 2.70711C10.9024 2.31658 10.9024 1.68342 11.2929 1.29289Z" fill="white" fill-opacity="0.56"/>
<path fill-rule="evenodd" clip-rule="evenodd" d="M6.21967 2.96967C6.51256 2.67678 6.98744 2.67678 7.28033 2.96967L11.7803 7.46967C12.0732 7.76256 12.0732 8.23744 11.7803 8.53033L7.28033 13.0303C6.98744 13.3232 6.51256 13.3232 6.21967 13.0303C5.92678 12.7374 5.92678 12.2626 6.21967 11.9697L10.1893 8L6.21967 4.03033C5.92678 3.73744 5.92678 3.26256 6.21967 2.96967Z" fill="white" fill-opacity="0.32"/>
<path fill-rule="evenodd" clip-rule="evenodd" d="M2.14645 4.64645C2.34171 4.45118 2.65829 4.45118 2.85355 4.64645L5.85355 7.64645C6.04882 7.84171 6.04882 8.15829 5.85355 8.35355L2.85355 11.3536C2.65829 11.5488 2.34171 11.5488 2.14645 11.3536C1.95118 11.1583 1.95118 10.8417 2.14645 10.6464L4.79289 8L2.14645 5.35355C1.95118 5.15829 1.95118 4.84171 2.14645 4.64645Z" fill="white" fill-opacity="0.16"/>
</svg>
