<svg width="32" height="32" viewBox="0 0 32 32" fill="none" xmlns="http://www.w3.org/2000/svg">
<rect width="32" height="32" fill="black" fill-opacity="0" transform="translate(0 32) scale(1 -1)"/>
<path fill-rule="evenodd" clip-rule="evenodd" d="M14.2763 23.0569C14.7977 23.5769 14.7977 24.4223 14.2763 24.9423C13.7563 25.4636 12.911 25.4636 12.391 24.9423L4.391 16.9423C3.86967 16.4209 3.86967 15.5769 4.391 15.0569L12.391 7.05692C12.911 6.53559 13.7563 6.53559 14.2763 7.05692C14.7977 7.57692 14.7977 8.42092 14.2763 8.94225L8.55233 14.6663H26.667C27.403 14.6663 28.0003 15.2636 28.0003 15.9996C28.0003 16.7356 27.403 17.3329 26.667 17.3329H8.55233L14.2763 23.0569Z" fill="black"/>
</svg>