<svg width="24" height="24" viewBox="0 0 24 24" fill="none" xmlns="http://www.w3.org/2000/svg">
<rect width="24" height="24" fill="black" fill-opacity="0"/>
<mask id="mask0" mask-type="alpha" maskUnits="userSpaceOnUse" x="0" y="0" width="24" height="24">
<circle cx="12" cy="12" r="12" fill="#C4C4C4"/>
</mask>
<g mask="url(#mask0)">
<circle cx="12" cy="12" r="12" fill="black"/>
<rect width="10.3529" height="16" fill="black" fill-opacity="0" transform="translate(7 4)"/>
<rect width="10.287" height="10.7235" fill="black" fill-opacity="0" transform="translate(7.03412 4)"/>
<rect width="10.287" height="10.7235" fill="black" fill-opacity="0" transform="translate(7.03412 4)"/>
<path d="M8.95281 4.02701C9.21189 3.95274 9.47097 4.06414 9.7009 4.18229C10.2126 4.44897 10.7502 4.67177 11.3202 4.75617C11.7153 4.81693 12.1168 4.81355 12.5152 4.80343C13.1823 4.7933 13.8365 4.59076 14.4389 4.29369C14.6947 4.17216 14.9473 4 15.2388 4C15.6371 4.01688 15.9901 4.35108 16.0743 4.74942C16.1294 4.97559 16.0711 5.21527 15.9642 5.41444C16.1812 5.27941 16.4564 5.23552 16.6961 5.32667C17.0944 5.46845 17.4086 5.93093 17.2985 6.37653C17.2531 6.59257 17.1398 6.77824 17.0523 6.97741C16.8321 7.47027 16.654 7.99013 16.5892 8.53363C16.5374 8.93534 16.5504 9.34043 16.5536 9.74552C16.5698 10.5084 16.8094 11.2477 17.1333 11.9263C17.2305 12.122 17.3179 12.328 17.3211 12.5508C17.2985 13.0099 16.9098 13.4183 16.4694 13.4453C16.2913 13.4555 16.1164 13.4048 15.961 13.3137C16.0743 13.5162 16.1294 13.7694 16.0646 14.0023C15.9739 14.3568 15.6824 14.6505 15.3359 14.7146C15.0898 14.7551 14.8501 14.6505 14.6364 14.5357C13.9596 14.1745 13.2147 13.9281 12.4504 13.9213C12.1395 13.9247 11.8254 13.9044 11.5145 13.9449C10.9574 13.9956 10.4231 14.188 9.92112 14.4277C9.65556 14.556 9.39001 14.7382 9.08558 14.718C8.63219 14.6809 8.25005 14.2353 8.25976 13.7627C8.26948 13.6074 8.31158 13.4521 8.38607 13.3171C8.14318 13.4555 7.84199 13.4926 7.58939 13.3677C7.2202 13.1955 6.93845 12.7432 7.06475 12.3212C7.11657 12.1052 7.23639 11.9161 7.32059 11.7136C7.56996 11.16 7.75132 10.5658 7.79342 9.95144C7.81285 9.5261 7.81933 9.094 7.7837 8.66866C7.72217 7.99013 7.48576 7.34199 7.19105 6.73773C7.09714 6.53181 7.00646 6.30226 7.04532 6.07271C7.12304 5.60348 7.57967 5.22202 8.03954 5.28616C8.16261 5.30304 8.28243 5.3503 8.39254 5.41106C8.28567 5.21527 8.23062 4.98234 8.28243 4.76292C8.35044 4.41184 8.62248 4.11815 8.95281 4.02701ZM8.95281 6.00857C9.65232 6.87614 10.3518 7.74708 11.0514 8.61127C11.236 8.83069 11.3946 9.1075 11.3752 9.41132C11.359 9.71176 11.1777 9.96832 10.9931 10.1844C10.3486 10.9844 9.70414 11.7878 9.05644 12.5879C9.02405 12.6318 8.99491 12.679 8.96252 12.7263C9.79482 11.987 10.6401 11.2579 11.4756 10.5186C11.6829 10.3329 11.942 10.1742 12.2269 10.1979C12.5152 10.2114 12.7581 10.4038 12.9653 10.5962C13.7717 11.3051 14.5846 12.0106 15.391 12.7229C15.3035 12.5811 15.1934 12.4596 15.093 12.3313C14.4907 11.5853 13.8915 10.8359 13.2859 10.0898C13.1078 9.8738 12.9588 9.60374 12.9815 9.31005C12.9977 9.01298 13.1694 8.76318 13.3539 8.55051C14.0081 7.7437 14.6558 6.92677 15.3133 6.11997C15.3392 6.07608 15.3651 6.03558 15.391 5.99169C14.5684 6.73435 13.7264 7.45001 12.8973 8.18593C12.703 8.36484 12.4634 8.51675 12.1946 8.52012C11.9322 8.53025 11.6894 8.3851 11.495 8.21293C10.6919 7.50065 9.87902 6.80187 9.07587 6.08959C9.03377 6.06596 8.99491 6.03895 8.95281 6.00857Z" fill="#EC1D25"/>
<rect width="10.3529" height="14.0016" fill="black" fill-opacity="0" transform="translate(7 5.99829)"/>
<path d="M8.95276 6.00842C8.99162 6.0388 9.03372 6.06581 9.07258 6.09619C9.87574 6.80847 10.6886 7.51063 11.4918 8.21953C11.6861 8.3917 11.929 8.53348 12.1913 8.52673C12.4568 8.52335 12.6965 8.36806 12.894 8.19253C13.7231 7.45661 14.5651 6.74096 15.3877 5.99829C15.3618 6.0388 15.3359 6.08268 15.31 6.12657C14.6525 6.93337 14.0048 7.74693 13.3507 8.55711C13.1693 8.76978 12.9944 9.02296 12.9782 9.31665C12.9588 9.61034 13.1078 9.8804 13.2827 10.0964C13.885 10.8425 14.4874 11.5885 15.0897 12.3379C15.1901 12.4662 15.3035 12.5877 15.3877 12.7295C14.5845 12.0172 13.7717 11.3151 12.962 10.6028C12.7548 10.4104 12.5119 10.2214 12.2237 10.2045C11.9419 10.1808 11.6796 10.3361 11.4723 10.5252C10.6368 11.2645 9.79153 11.9902 8.95924 12.7329C8.98838 12.6856 9.02077 12.6384 9.05315 12.5945C9.70086 11.7944 10.3421 10.991 10.9898 10.191C11.1744 9.97492 11.3557 9.71836 11.3719 9.41792C11.3914 9.1141 11.2359 8.83729 11.0481 8.61787C10.3518 7.74693 9.65552 6.87599 8.95276 6.00842Z" fill="white"/>
<path d="M14.9312 15.9466C15.2064 15.7677 15.5368 15.7238 15.8541 15.717C16.1229 15.7339 16.395 15.7339 16.6573 15.7981C16.7868 15.8251 16.939 15.8892 17.0492 15.7778C17.0621 15.7778 17.088 15.7744 17.0977 15.7711C17.0977 16.0242 17.0977 16.2774 17.1042 16.5272C17.0913 16.5238 17.0621 16.5205 17.0459 16.5205C16.9779 16.2437 16.7415 16.0445 16.4857 15.9736C16.178 15.8858 15.8282 15.8757 15.5465 16.0445C15.2388 16.2268 15.1028 16.6758 15.2777 16.9998C15.323 17.0775 15.3878 17.1382 15.4623 17.1889C15.9027 17.4522 16.4533 17.4049 16.8775 17.7087C17.1269 17.8708 17.2953 18.1543 17.3341 18.4581C17.3989 18.8599 17.2985 19.3122 17.0038 19.5924C16.7188 19.8658 16.327 19.9671 15.9513 19.9941C15.5011 20.0245 15.051 19.93 14.6203 19.8017C14.6008 19.8152 14.5846 19.8321 14.5652 19.849C14.5393 19.8793 14.5069 19.903 14.4713 19.9232C14.4648 19.6464 14.4681 19.3662 14.4681 19.0894C14.4842 19.0894 14.5134 19.0894 14.5296 19.0894C14.5425 19.2616 14.6235 19.427 14.766 19.5249C15.0672 19.7781 15.4785 19.8321 15.8477 19.7713C16.0873 19.7308 16.3205 19.5992 16.4468 19.3764C16.599 19.0928 16.6281 18.7113 16.4338 18.4413C16.2881 18.2421 16.0323 18.205 15.8153 18.1408C15.3975 18.0261 14.9409 17.9113 14.6526 17.5501C14.264 17.0707 14.4195 16.2572 14.9312 15.9466Z" fill="white"/>
<rect width="3.85912" height="4.19124" fill="black" fill-opacity="0" transform="translate(7 15.7627)"/>
<path d="M7 15.788C7.09716 15.7508 7.20079 15.7677 7.30442 15.7643C7.82258 15.7643 8.34398 15.7643 8.86215 15.7643C9.49366 15.7373 10.1349 16.0445 10.5041 16.5813C10.6854 16.848 10.7923 17.1619 10.8376 17.4826C10.8668 17.7054 10.8635 17.9316 10.8441 18.1577C10.7761 18.6911 10.5365 19.2076 10.1316 19.5486C9.92438 19.7308 9.67501 19.8591 9.40946 19.9199C9.16333 19.9671 8.91396 19.9503 8.6646 19.9536C8.12053 19.9536 7.57322 19.9503 7.02915 19.9536C7.02591 19.9401 7.01943 19.9098 7.01619 19.8963C7.13602 19.8591 7.29794 19.8017 7.29794 19.6431C7.34004 19.2616 7.30766 18.8768 7.34004 18.4953C7.34328 18.0767 7.34976 17.6581 7.33033 17.2429C7.31414 16.8682 7.32709 16.4935 7.30766 16.1188C7.2947 16.0513 7.28823 15.977 7.23965 15.9264C7.17812 15.8521 7.07772 15.8319 7 15.788ZM8.07519 16.1964C8.06871 17.3341 8.05252 18.4751 8.07843 19.6127C8.10433 19.7275 8.22416 19.7612 8.32455 19.7714C8.67431 19.8085 9.03703 19.7815 9.36412 19.6397C9.69445 19.454 9.88552 19.0793 9.98591 18.7147C10.1187 18.2151 10.0766 17.6885 9.96324 17.1923C9.86285 16.7838 9.65882 16.372 9.29611 16.1525C8.93987 15.9331 8.51239 15.923 8.11081 15.95C8.09462 16.031 8.07843 16.112 8.07519 16.1964Z" fill="white"/>
<rect width="3.44966" height="4.19031" fill="black" fill-opacity="0" transform="translate(10.8603 15.7605)"/>
<path d="M10.8862 15.7879C10.9218 15.7778 10.9542 15.7575 10.9931 15.7609C11.644 15.7609 12.2917 15.7609 12.9394 15.7609C13.2276 15.7642 13.5321 15.8216 13.7652 16.0107C13.9984 16.2098 14.0923 16.5474 14.0502 16.8479C13.9855 17.2631 13.6422 17.5534 13.2892 17.7087C13.6648 17.7931 14.034 18.026 14.2057 18.3973C14.4065 18.8261 14.3158 19.4101 13.9466 19.7105C13.8527 19.7915 13.7393 19.8388 13.6292 19.886C13.341 19.9704 13.0431 19.9468 12.7483 19.9502C12.1784 19.9502 11.6051 19.9502 11.0352 19.9502C10.9736 19.9536 10.9153 19.94 10.8603 19.913C10.9931 19.8759 11.1356 19.805 11.1679 19.6497C11.1939 19.4337 11.168 19.2143 11.1809 18.9982C11.2036 18.637 11.1712 18.2758 11.2003 17.918C11.2003 17.3542 11.2003 16.7905 11.2003 16.2301C11.1939 16.1255 11.1841 16.0174 11.1291 15.9263C11.074 15.8385 10.9672 15.8318 10.8862 15.7879ZM12.0164 15.9465C11.9743 16.2976 11.997 16.6521 11.9873 17.0031C11.9711 17.307 11.9808 17.6108 11.9711 17.9146C11.9517 18.0361 11.9581 18.1644 11.9549 18.2859C11.9614 18.7349 11.9387 19.1873 11.9484 19.6362C11.9452 19.7476 12.0715 19.7578 12.1525 19.7679C12.4245 19.7848 12.703 19.7949 12.975 19.7375C13.1855 19.6936 13.3734 19.535 13.4479 19.3257C13.558 19.0185 13.5483 18.6674 13.4252 18.3636C13.3151 18.0969 13.0657 17.9247 12.8099 17.8403C12.6318 17.7897 12.4504 17.7559 12.2658 17.7559C12.2658 17.7391 12.2626 17.7087 12.2626 17.6918C12.4504 17.6952 12.6318 17.6445 12.8034 17.5669C13.0269 17.4656 13.2179 17.2563 13.2633 17.0031C13.2989 16.7736 13.2795 16.5272 13.1823 16.3145C13.0884 16.112 12.8908 15.9769 12.6803 15.9465C12.4634 15.9128 12.2367 15.9027 12.0164 15.9465Z" fill="white"/>
</g>
</svg>
