<svg width="23" height="18" viewBox="0 0 23 18" fill="none" xmlns="http://www.w3.org/2000/svg">
<rect width="23" height="18" fill="black" fill-opacity="0"/>
<path fill-rule="evenodd" clip-rule="evenodd" d="M3.66595 13.4829L3.83368 13.6461L3.91156 13.7186L6.18744 15.9558C6.28632 16.0555 6.38983 16.1564 6.53802 16.2986C6.61615 16.3777 6.70355 16.4615 6.83441 16.5848L6.8764 16.6282C6.9306 16.6847 6.94452 16.6989 6.96942 16.722C7.27069 17.0181 7.63324 17.2771 8.03021 17.4766C8.42767 17.6752 8.85223 17.8125 9.29047 17.8844C9.50922 17.9202 9.72894 17.947 9.94965 17.9648C10.1349 17.9797 10.3207 17.9884 10.5068 17.9907L10.7028 17.9958C10.8234 17.9985 10.9255 18 11.0248 18H17.0139H17.6188C17.7692 18 17.8876 17.9976 18.1469 17.9905C18.3256 17.9883 18.5063 17.98 18.6877 17.9655C18.7495 17.9606 18.8112 17.955 18.873 17.9486C18.9228 17.9435 18.9728 17.9379 19.0226 17.9318C19.0744 17.9254 19.1262 17.9186 19.1777 17.9114C19.2365 17.9031 19.2953 17.894 19.3539 17.8845C19.7924 17.8125 20.2162 17.675 20.6118 17.4767C21.009 17.2784 21.373 17.0187 21.6887 16.7078C22.0026 16.3966 22.2651 16.0422 22.4687 15.655C22.5756 15.4453 22.6647 15.2306 22.7363 15.0114C22.7739 14.8961 22.8063 14.7798 22.8339 14.6622C22.8532 14.5808 22.8701 14.4989 22.8845 14.4164C22.9509 14.0156 22.9863 13.6173 22.9914 13.218C22.997 13.038 22.9999 12.8691 22.9999 12.7062V5.29382L22.9982 5.16101L22.9958 4.96802L22.9931 4.84509L22.9911 4.77014C22.9863 4.38269 22.9509 3.98438 22.8857 3.59021C22.8093 3.15576 22.6706 2.74121 22.4731 2.35303C22.267 1.95776 22.0034 1.60168 21.6884 1.29211C21.373 0.981323 21.009 0.721558 20.6105 0.522705C20.2162 0.324951 19.7924 0.1875 19.3547 0.115601C18.9531 0.0474854 18.5427 0.0117188 18.1315 0.00927734C17.8876 0.00244141 17.7692 0 17.6188 0H11.0229C10.9235 0 10.8215 0.00146484 10.7009 0.00415039L10.4941 0.00952148L10.4001 0.0106201C10.3203 0.012207 10.2397 0.0151367 10.1586 0.0192871C10.0932 0.0227051 10.0275 0.0269775 9.96185 0.0322266C9.73676 0.0499268 9.50995 0.0778809 9.28461 0.116211C8.85028 0.1875 8.42572 0.324829 8.02972 0.522827C7.63153 0.7229 7.26874 0.981934 6.95331 1.2915C6.94232 1.30139 6.92328 1.32092 6.83466 1.41406C6.72211 1.51855 6.62128 1.61548 6.52411 1.71338C6.37421 1.85693 6.28119 1.94751 6.17841 2.05127L3.84027 4.34668C3.81073 4.37451 3.78094 4.40308 3.74652 4.43665L3.6601 4.52075C3.5683 4.60864 3.5097 4.66589 3.44452 4.73303L1.35712 6.78418L1.3056 6.83435L1.25262 6.88696L1.1889 6.95044L1.1579 6.98108L1.07562 7.0625L1.0351 7.10352L1.02167 7.11755C1.00702 7.13269 0.993103 7.14746 0.978943 7.16296C0.805115 7.33008 0.641541 7.50745 0.489685 7.69409C0.342957 7.84692 0.224304 8.02393 0.139099 8.21692L0.115173 8.27979C-0.0383911 8.74805 -0.0383911 9.25195 0.115173 9.72021L0.141052 9.78735C0.227478 9.97949 0.345398 10.1562 0.490173 10.3105C0.648621 10.4995 0.816589 10.6807 0.993347 10.8531L1.06952 10.9293L1.1579 11.0172C1.185 11.0436 1.20526 11.0637 1.25482 11.113C1.30585 11.1641 1.33026 11.1882 1.36005 11.2174L3.45795 13.2831L3.66595 13.4829ZM7.53339 15.3195C7.38055 15.1726 7.28436 15.0787 7.1889 14.9827L4.85931 12.6926C4.84979 12.6826 4.84003 12.673 4.82977 12.6635C4.81683 12.6514 4.80341 12.6398 4.78973 12.6285L4.65277 12.4955L4.44794 12.2986L2.35419 10.2369C2.32684 10.2103 2.30658 10.1902 2.25726 10.1409L2.15179 10.0365L2.07343 9.95862L2.03314 9.91821L1.99115 9.87622C1.83685 9.72571 1.69647 9.57385 1.52997 9.37683C1.49554 9.34143 1.46674 9.30139 1.44379 9.25818C1.39569 9.08875 1.39594 8.90979 1.44427 8.74048C1.46429 8.70264 1.48993 8.66785 1.52045 8.63745L1.57196 8.58032C1.6347 8.50232 1.69989 8.42639 1.77216 8.34814C1.84393 8.27051 1.92255 8.19067 2.01215 8.104C2.04559 8.06702 2.0766 8.03577 2.15155 7.96191L2.19916 7.91516L2.25507 7.85925L2.30292 7.81177L2.34711 7.76855L4.4516 5.70044C4.51337 5.63733 4.56146 5.59009 4.68036 5.47583L4.73578 5.42188C4.74554 5.41235 4.75482 5.40332 4.76849 5.39148C4.77826 5.38281 4.79022 5.37256 4.80634 5.3595L7.18109 3.02332C7.27972 2.92383 7.36566 2.83997 7.51947 2.6925L7.58685 2.62537L7.64081 2.57275C7.69305 2.52222 7.74579 2.47229 7.80316 2.41895C7.82904 2.3949 7.85883 2.36401 7.93378 2.28516C8.05804 2.16333 8.18768 2.05603 8.32343 1.96179C8.43427 1.88489 8.54926 1.81665 8.66888 1.75659C8.93573 1.62317 9.22357 1.53015 9.52045 1.48132C9.74921 1.4425 9.97797 1.41663 10.2072 1.40356C10.3107 1.39771 10.4142 1.39453 10.5178 1.39392L10.7336 1.38843C10.8442 1.38586 10.9357 1.38464 11.0229 1.38464H17.6188C17.7519 1.38464 17.8613 1.38684 18.1076 1.39355C18.4567 1.39587 18.79 1.42493 19.1188 1.48071C19.4184 1.52991 19.7048 1.6228 19.9719 1.75671C20.239 1.89001 20.4819 2.06335 20.6926 2.27087C20.9037 2.47876 21.0807 2.71753 21.217 2.97888C21.3498 3.24011 21.4453 3.52527 21.497 3.81958C21.55 4.13916 21.5793 4.46899 21.5834 4.79956L21.5876 4.96289L21.5903 5.17737L21.592 5.30347L21.5917 5.59045V12.7062C21.5917 12.8542 21.5891 13.0096 21.5837 13.1887C21.5817 13.3503 21.5739 13.5092 21.5607 13.6661C21.5461 13.8417 21.5244 14.0149 21.4958 14.1871C21.4453 14.4747 21.3498 14.76 21.2141 15.027C21.1913 15.0701 21.1674 15.1128 21.1423 15.155C21.1225 15.188 21.102 15.2207 21.081 15.2531C21.0683 15.2726 21.0554 15.292 21.0419 15.3113C21.0202 15.3428 20.9977 15.374 20.9748 15.4049C20.8889 15.5195 20.7939 15.6288 20.6909 15.7308C20.4819 15.9366 20.239 16.11 19.9731 16.2427C19.7048 16.3773 19.4184 16.4701 19.1227 16.5187C18.7912 16.5729 18.4553 16.6022 18.1186 16.6062C17.8613 16.6132 17.7519 16.6154 17.6188 16.6154H17.0139H11.0246C10.9789 16.6154 10.9318 16.615 10.8813 16.6144L10.7353 16.6116L10.5349 16.6064C10.1884 16.6022 9.85321 16.5729 9.52191 16.5187C9.22528 16.47 8.93768 16.377 8.66913 16.2428C8.40448 16.1099 8.16132 15.936 7.94989 15.7285C7.94061 15.7195 7.92279 15.7013 7.8996 15.6771C7.83051 15.6052 7.8244 15.5989 7.79462 15.5724C7.68744 15.4713 7.61005 15.3967 7.53339 15.3195Z" fill="#FEFCFD"/>
<path d="M16.554 5.45996L10.2283 11.6815L11.0862 12.5261L17.412 6.30458L16.554 5.45996Z" fill="#FEFCFD"/>
<path d="M17.4101 11.6815L11.0778 5.4646L10.2198 6.30922L16.5522 12.5215L17.4101 11.6815Z" fill="#FEFCFD"/>
</svg>