<svg width="24" height="24" viewBox="0 0 24 24" fill="none" xmlns="http://www.w3.org/2000/svg">
<rect width="24" height="24" fill="black" fill-opacity="0"/>
<mask id="mask0" mask-type="alpha" maskUnits="userSpaceOnUse" x="0" y="0" width="24" height="24">
<circle cx="12" cy="12" r="12" fill="#C4C4C4"/>
</mask>
<g mask="url(#mask0)">
<circle cx="12" cy="12" r="11.5" fill="white" stroke="#B1B5BA"/>
<rect width="22" height="17.9999" fill="black" fill-opacity="0" transform="translate(1 3)"/>
<path d="M14.0632 11.7644L14.2676 11.7724C14.3148 12.1159 14.1969 12.4515 14.189 12.787C14.2283 13.1865 14.6606 13.3383 14.8178 13.6739C14.8885 13.9535 14.7549 14.2651 14.8964 14.5287C15.0064 14.7524 15.1793 15.0241 15.0221 15.2797C14.9121 15.5194 14.4877 15.7191 14.3462 15.4155C14.4484 15.2398 14.637 15.1599 14.7785 15.0241C14.747 14.8083 14.6056 14.6406 14.5191 14.4568C14.4798 14.2731 14.5427 14.0893 14.527 13.9055C14.4091 13.554 14.0632 13.3143 13.9768 12.9468C13.9375 12.5474 14.1183 12.1639 14.0632 11.7644Z" fill="white"/>
<path d="M14.692 12.9387C14.527 12.659 14.472 12.3155 14.5506 12.0039C14.5899 12.1797 14.5977 12.3554 14.6056 12.5312L14.637 12.4833C14.7628 12.8268 15.0379 13.0665 15.3208 13.2822C15.706 13.6018 15.6981 14.4167 15.1322 14.5206C15.2108 14.2889 15.3837 14.0652 15.313 13.8095C15.2422 13.434 14.9043 13.2183 14.692 12.9387Z" fill="white"/>
<path d="M3.20074 6.58722C5.24433 4.41411 8.14465 3.17577 11.0686 3C10.7463 3.24767 10.3926 3.43941 10.0625 3.66312C8.82061 4.52597 7.6259 5.4767 6.58838 6.57923C5.45655 6.57923 4.33258 6.57124 3.20074 6.58722Z" fill="#1E9DCB"/>
<path d="M11.7917 3.04004C11.7838 4.22246 11.7838 5.3969 11.7917 6.57932C10.2747 6.62726 8.75775 6.56334 7.24078 6.58731C8.5927 5.20515 10.1568 4.05469 11.7917 3.04004Z" fill="#1E9DCB"/>
<path d="M12.9393 3.0078C13.4502 2.99182 13.9532 3.11166 14.4562 3.19155C16.8299 3.64694 19.1172 4.77344 20.7756 6.57903C19.6517 6.56305 18.5277 6.58702 17.4037 6.57104C16.7513 5.79608 15.9575 5.17291 15.1794 4.54974C14.4562 4.00646 13.7174 3.47917 12.9393 3.0078Z" fill="#1E9DCB"/>
<path d="M12.2554 3.04785C13.8746 4.07049 15.4623 5.19699 16.7906 6.60311C15.2815 6.54719 13.7646 6.63507 12.2554 6.58713C12.2554 5.40471 12.2476 4.23028 12.2554 3.04785Z" fill="#1E9DCB"/>
<path d="M2.76814 7.09839C3.89211 7.09839 5.01608 7.09839 6.14006 7.09839C5.03966 8.39266 4.20651 10.0065 4.16721 11.7402C3.11397 11.7722 2.06074 11.7562 1.00751 11.7482C1.09397 10.4299 1.45552 9.13567 2.15506 8.00917C2.3437 7.69759 2.56378 7.40198 2.76814 7.09839Z" fill="#1E9DCB"/>
<path d="M17.8832 7.09058C18.9914 7.09857 20.1075 7.09857 21.2158 7.09058C22.269 8.40083 22.9057 10.0546 23 11.7484C21.9546 11.7484 20.9171 11.7643 19.8717 11.7404C19.8324 9.9987 18.9914 8.37686 17.8832 7.09058Z" fill="#1E9DCB"/>
<path d="M1 12.2596C2.06109 12.2357 3.12219 12.2836 4.18328 12.2437C4.2776 14.0093 5.21293 15.5912 6.30547 16.9094C5.14219 16.9174 3.97892 16.9014 2.81565 16.9174C2.20257 16.1664 1.7074 15.3036 1.40872 14.3688C1.16506 13.6897 1.0786 12.9707 1 12.2596Z" fill="#1E9DCB"/>
<path d="M19.856 12.2437C20.9014 12.2756 21.9467 12.2516 22.9921 12.2516C22.8978 13.8895 22.3162 15.4953 21.3022 16.7736C21.2393 16.8455 21.1765 16.9254 21.0743 16.9094C19.9582 16.9094 18.8421 16.9094 17.726 16.9094C18.8342 15.5992 19.7381 14.0013 19.856 12.2437Z" fill="#1E9DCB"/>
<path d="M3.1615 17.3887C4.34835 17.4126 5.5352 17.3967 6.7142 17.3967C7.98751 18.7948 9.51234 19.9373 11.0686 20.9999C8.12113 20.8161 5.19723 19.5857 3.1615 17.3887Z" fill="#1E9DCB"/>
<path d="M7.35083 17.3887C8.8285 17.4126 10.2983 17.4046 11.776 17.3967C11.7996 18.5791 11.7524 19.7615 11.7996 20.9439C10.1961 19.9373 8.68702 18.7469 7.35083 17.3887Z" fill="#1E9DCB"/>
<path d="M12.2476 17.6525C12.2319 17.5406 12.2555 17.3649 12.4127 17.3968C13.8353 17.3968 15.258 17.4208 16.6806 17.3809C15.3602 18.747 13.8432 19.9055 12.2555 20.9281C12.2476 19.8416 12.2555 18.747 12.2476 17.6525Z" fill="#1E9DCB"/>
<path d="M12.9235 21C14.4877 19.9454 16.0046 18.795 17.2858 17.3968C18.4569 17.3968 19.6281 17.4128 20.8071 17.3809C18.7792 19.5859 15.8553 20.8003 12.9235 21Z" fill="#1E9DCB"/>
<rect width="9.0142" height="8.89214" fill="black" fill-opacity="0" transform="translate(7.05219 7.42603)"/>
<path d="M14.2755 9.53521C14.3226 8.72829 14.5427 7.76957 15.3444 7.42603L15.4545 7.48994C15.3209 7.78555 15.0693 8.00925 14.9672 8.31284C14.7078 8.98395 14.9121 9.75093 15.2894 10.3341C15.2344 10.3661 15.1794 10.3981 15.1322 10.43C14.9986 10.6857 14.6056 10.7017 14.5663 11.0212C14.5742 11.4766 14.92 11.7882 15.2108 12.0838C15.203 12.2436 15.1086 12.4194 15.203 12.5792C15.4702 13.0585 15.9497 13.418 16.0597 13.9773C16.1147 14.4167 15.8239 14.8322 15.4388 14.9999C15.3287 15.2556 15.2658 15.5831 14.9986 15.719C14.7078 15.9347 14.3541 15.7989 14.0318 15.7589C14.1497 15.9427 14.2912 16.1104 14.3934 16.3102C14.1497 16.3182 13.9139 16.3182 13.6703 16.3182C13.4895 16.1584 13.4423 15.9187 13.3952 15.695C13.2301 15.687 13.065 15.695 12.9 15.711C13.0336 15.8947 13.1987 16.0545 13.3323 16.2383C13.1122 16.3421 12.8685 16.3022 12.6328 16.3102C12.5384 16.2143 12.4441 16.1184 12.3419 16.0226C12.3812 15.6071 12.4048 15.1837 12.3105 14.7762C12.2083 14.5365 12.1061 14.2889 12.0668 14.0252C12.3734 14.1451 12.7664 14.2569 13.01 13.9533C13.0336 13.6657 13.0493 13.3541 13.1987 13.0985C13.3087 12.9227 13.4816 12.7629 13.4816 12.5392C13.4738 12.2196 13.3244 11.908 13.0729 11.7163C12.8135 11.5166 12.4598 11.6444 12.1847 11.7483C11.8232 11.8681 11.5402 12.1557 11.1708 12.2276C10.8643 12.2756 10.542 12.2116 10.2512 12.0998C9.78745 11.8841 9.52807 11.3967 9.08005 11.1571C8.59274 10.9254 7.94822 10.9333 7.55522 11.3408C7.28012 11.7243 7.20938 12.2276 7.31942 12.691C7.43732 13.3621 7.55522 14.0332 7.66526 14.7043C7.75958 15.2236 7.64168 15.7509 7.4609 16.2303C7.2644 15.9427 7.16222 15.5991 7.1465 15.2556C7.15436 14.8002 7.28798 14.3528 7.27226 13.8974C7.25654 13.2742 7.09934 12.675 7.05219 12.0598C7.09934 11.5326 7.35872 11.0132 7.79888 10.7096C8.29406 10.3981 8.91499 10.454 9.44947 10.6377C10.0783 10.7975 10.6599 11.173 11.3201 11.165C11.721 11.189 12.114 11.0692 12.452 10.8694C12.4284 10.5978 12.3184 10.3182 12.397 10.0465C12.452 9.73495 12.7035 9.49527 12.9707 9.35146C13.403 9.13575 13.8825 9.32749 14.2755 9.53521ZM14.0633 11.7642C14.1183 12.1637 13.9375 12.5472 13.9768 12.9467C14.0554 13.3222 14.4012 13.5539 14.527 13.9054C14.5427 14.0891 14.4798 14.2729 14.5191 14.4567C14.6135 14.6484 14.7471 14.8162 14.7785 15.0239C14.637 15.1597 14.4484 15.2396 14.3462 15.4154C14.4877 15.727 14.9121 15.5192 15.0222 15.2796C15.1794 15.0319 15.0065 14.7602 14.8964 14.5286C14.7628 14.2649 14.8886 13.9533 14.8178 13.6737C14.6606 13.3381 14.2283 13.1863 14.189 12.7869C14.1969 12.4433 14.3069 12.1158 14.2676 11.7722L14.0633 11.7642ZM14.6921 12.9387C14.9043 13.2183 15.2423 13.434 15.3051 13.8095C15.3759 14.0652 15.2108 14.2889 15.1244 14.5206C15.6903 14.4167 15.6981 13.6018 15.313 13.2822C15.03 13.0665 14.7628 12.8268 14.6292 12.4833L14.5977 12.5312C14.5899 12.3555 14.582 12.1797 14.5427 12.0039C14.4798 12.3235 14.527 12.659 14.6921 12.9387Z" fill="#961D1C"/>
<path d="M16.8221 7.66594C16.7828 7.52213 16.8299 7.48219 16.9793 7.5461C17.4116 8.24916 17.3644 9.17593 16.9793 9.89497C16.8535 10.1586 16.6727 10.3903 16.547 10.646C16.547 10.8617 16.6884 11.0534 16.6963 11.2771C16.5941 11.6846 16.0754 11.8524 16.0675 12.2998C16.0361 12.5474 15.9968 12.8031 15.8946 13.0348C15.7453 12.9948 15.6824 12.843 15.6116 12.7232C15.6902 12.6753 15.7688 12.6353 15.8474 12.5874C15.8867 12.3876 15.9103 12.1879 15.9653 11.9882C16.0439 11.7006 16.3505 11.5008 16.319 11.1813C16.2483 10.7898 15.9575 10.4942 15.6352 10.2944C16.0361 10.0627 16.4998 9.82306 16.6963 9.36767C16.9478 8.83239 16.9321 8.2252 16.8221 7.66594Z" fill="#961D1C"/>
<path d="M15.1321 11.1172C15.2658 11.1651 15.3837 11.245 15.5094 11.3169C15.4701 11.4527 15.4308 11.5886 15.3994 11.7244C15.3601 11.6285 15.3286 11.5406 15.2893 11.4448C15.195 11.3649 15.0064 11.261 15.1321 11.1172Z" fill="#961D1C"/>
<path d="M9.00931 13.8335C9.07219 13.482 9.22153 13.0985 9.5595 12.9387C9.5595 13.2104 9.48091 13.514 9.68526 13.7377C9.9918 14.1771 10.5656 14.1851 11.0215 14.3528C11.1787 14.2809 11.3201 14.1851 11.4773 14.1132C11.3673 14.3209 11.2022 14.4966 11.0372 14.6644C10.7149 14.5286 10.4084 14.3528 10.0704 14.257C9.8346 14.4008 9.77172 14.7044 9.59094 14.9041C9.39445 15.1598 9.06433 15.2397 8.80495 15.3994C8.64775 15.759 8.99359 15.9907 9.16651 16.2463C8.94643 16.2863 8.72635 16.3262 8.50627 16.2942C8.37265 16.2303 8.27833 16.1265 8.16829 16.0386C8.23117 15.4873 7.99537 14.984 7.86176 14.4647C8.13685 14.5366 8.43553 14.8642 8.71849 14.6564C8.96215 14.4727 8.94643 14.1211 9.00931 13.8335Z" fill="#961D1C"/>
</g>
</svg>
