<svg width="119" height="18" viewBox="0 0 119 18" fill="none" xmlns="http://www.w3.org/2000/svg">
<rect width="118.286" height="18" fill="black" fill-opacity="0"/>
<rect width="118.286" height="18" fill="black" fill-opacity="0"/>
<rect width="118.286" height="18" fill="black" fill-opacity="0"/>
<rect width="118.286" height="18" fill="black" fill-opacity="0"/>
<rect width="45.3468" height="18" fill="black" fill-opacity="0" transform="translate(72.939)"/>
<rect width="5.71256" height="9.08607" fill="black" fill-opacity="0" transform="translate(72.939 4.50415)"/>
<path d="M78.3801 6.79513C78.2156 6.74186 77.866 6.70497 77.5123 6.70497C76.4636 6.70497 75.3367 7.55333 75.3367 8.59841V13.5902H72.939V4.68448H75.2421V5.58612C75.7767 4.92628 76.7514 4.50415 77.8413 4.50415C78.1909 4.50415 78.3924 4.54104 78.6515 4.57792L78.3801 6.79513Z" fill="white"/>
<rect width="3.13388" height="13.5943" fill="black" fill-opacity="0" transform="translate(79.5193)"/>
<path d="M81.0862 0C81.954 0 82.6532 0.659836 82.6532 1.52459C82.6532 2.38934 81.954 3.04918 81.0862 3.04918C80.2184 3.04918 79.5193 2.38934 79.5193 1.52459C79.5193 0.659836 80.2226 0 81.0862 0ZM82.2871 13.5943H79.8894V4.68443H82.2871V13.5943Z" fill="white"/>
<rect width="9.31118" height="13.5" fill="black" fill-opacity="0" transform="translate(84.4463 4.5)"/>
<path d="M89.3651 4.5C88.3492 4.5 87.4486 4.83197 86.7494 5.40164V4.68443H84.4463V18H86.844V12.9672C87.5637 13.5205 88.3369 13.7746 89.2417 13.7746C90.5701 13.7746 91.8409 13.1844 92.6347 12.2664C93.3339 11.459 93.7575 10.3566 93.7575 9.14344C93.7492 6.52049 91.7957 4.5 89.3651 4.5ZM89.0731 11.6066C87.5843 11.6066 86.6055 10.582 86.6055 9.15164C86.6055 7.72131 87.5843 6.69672 89.0731 6.69672C90.3439 6.69672 91.3721 7.79508 91.3721 9.15164C91.3721 10.5082 90.3439 11.6066 89.0731 11.6066Z" fill="white"/>
<rect width="2.39771" height="13.0451" fill="black" fill-opacity="0" transform="translate(105.894 0.549316)"/>
<path d="M108.292 13.5944H105.894V0.549316H108.292V13.5944Z" fill="white"/>
<rect width="8.5709" height="9.27459" fill="black" fill-opacity="0" transform="translate(109.715 4.5)"/>
<path d="M118.064 12.1762C117.196 13.2049 115.777 13.7746 114.395 13.7746C111.722 13.7746 109.715 11.9385 109.715 9.14754C109.715 6.66803 111.409 4.5 114.066 4.5C116.538 4.5 118.286 6.57377 118.286 9.05328C118.286 9.29098 118.265 9.53279 118.232 9.73361H112.039C112.166 10.9836 113.182 11.8443 114.453 11.8443C115.464 11.8443 116.279 11.2746 116.702 10.8156L118.064 12.1762ZM115.835 7.9918C115.761 7.20082 115.041 6.43033 114.066 6.43033C113.071 6.43033 112.261 7.18443 112.15 7.9918H115.835Z" fill="white"/>
<rect width="9.31118" height="13.5" fill="black" fill-opacity="0" transform="translate(95.1722 4.5)"/>
<path d="M100.091 4.5C99.0752 4.5 98.1745 4.83197 97.4754 5.40164V4.68443H95.1722V18H97.5699V12.9672C98.2897 13.5205 99.0629 13.7746 99.9677 13.7746C101.296 13.7746 102.567 13.1844 103.361 12.2664C104.06 11.459 104.483 10.3566 104.483 9.14344C104.479 6.52049 102.526 4.5 100.091 4.5ZM99.799 11.6066C98.3102 11.6066 97.3314 10.582 97.3314 9.15164C97.3314 7.72131 98.3102 6.69672 99.799 6.69672C101.07 6.69672 102.098 7.79508 102.098 9.15164C102.102 10.5082 101.07 11.6066 99.799 11.6066Z" fill="white"/>
<rect width="14.1148" height="15.2561" fill="black" fill-opacity="0" transform="translate(55.4846 1.04395)"/>
<rect width="14.1148" height="15.2561" fill="black" fill-opacity="0" transform="translate(55.4846 1.04395)"/>
<path d="M67.9996 10.3482C67.4567 10.0368 66.848 9.94661 66.2476 9.92612C65.7417 9.90972 64.985 9.58595 64.985 8.66792C64.985 7.98349 65.5402 7.43431 66.2476 7.40972C66.8522 7.38923 67.4608 7.29907 67.9996 6.98759C68.9867 6.41792 69.5995 5.36874 69.5995 4.2294C69.5995 3.09005 68.9908 2.04087 67.9996 1.4712C67.0126 0.901527 65.7911 0.901527 64.804 1.4712C63.817 2.04087 63.2042 3.09005 63.2042 4.2294C63.2042 4.84825 63.4263 5.41382 63.7059 5.94251C63.9404 6.38513 64.0637 7.2089 63.2494 7.67202C62.6449 8.02038 61.8922 7.79907 61.518 7.20071C61.2013 6.69251 60.8188 6.2212 60.28 5.90972C59.293 5.34005 58.0715 5.34005 57.0845 5.90972C56.0974 6.4794 55.4846 7.52858 55.4846 8.66792C55.4846 9.80727 56.0933 10.8564 57.0845 11.4261C58.0715 11.9958 59.293 11.9958 60.28 11.4261C60.8147 11.1187 61.2013 10.6433 61.518 10.1392C61.7771 9.7253 62.431 9.19251 63.2494 9.66792C63.8499 10.0163 64.0391 10.7745 63.7018 11.4015C63.4222 11.9261 63.2001 12.4958 63.2001 13.1146C63.2001 14.254 63.8087 15.3032 64.7999 15.8728C65.787 16.4425 67.0084 16.4425 67.9955 15.8728C68.9825 15.3032 69.5953 14.254 69.5953 13.1146C69.5994 11.9671 68.9908 10.9138 67.9996 10.3482Z" fill="white"/>
<rect width="50.9812" height="9.11885" fill="black" fill-opacity="0" transform="translate(0 4.23755)"/>
<rect width="6.70783" height="8.86475" fill="black" fill-opacity="0" transform="translate(0 4.3606)"/>
<path d="M3.26961 9.81551H1.54638V13.2254H0V4.3606H3.12977C4.15795 4.3606 4.94759 4.5901 5.50692 5.04912C6.06625 5.50814 6.3418 6.17207 6.3418 7.04092C6.3418 7.63519 6.19786 8.13109 5.90997 8.53273C5.62208 8.93437 5.22314 9.24174 4.70905 9.45486L6.70783 13.1475V13.2254H5.05041L3.26961 9.81551ZM1.54638 8.57371H3.13389C3.6562 8.57371 4.06336 8.44256 4.35536 8.18027C4.64736 7.91797 4.79542 7.56141 4.79542 7.1065C4.79542 6.63109 4.6597 6.26223 4.38826 6.00404C4.11682 5.74584 3.71378 5.6106 3.17501 5.6024H1.54638V8.57371Z" fill="white"/>
<rect width="6.65026" height="8.98771" fill="black" fill-opacity="0" transform="translate(7.67029 4.3606)"/>
<path d="M14.3205 4.3606V10.2868C14.3205 11.2294 14.0162 11.9754 13.4116 12.5245C12.8071 13.0737 12.001 13.3483 10.9934 13.3483C9.97341 13.3483 9.16732 13.0778 8.56686 12.5368C7.9664 11.9958 7.67029 11.2417 7.67029 10.2786V4.3606H9.21255V10.2909C9.21255 10.8852 9.36061 11.336 9.66495 11.6475C9.96518 11.959 10.4135 12.1147 10.9975 12.1147C12.186 12.1147 12.7824 11.4876 12.7824 10.2376V4.3606H14.3205Z" fill="white"/>
<rect width="7.05741" height="8.86475" fill="black" fill-opacity="0" transform="translate(15.9738 4.3606)"/>
<path d="M23.0312 13.2254H21.4848L17.5201 6.93437V13.2254H15.9738V4.3606H17.5201L21.4971 10.6762V4.3606H23.0312V13.2254Z" fill="white"/>
<rect width="6.65025" height="9.11475" fill="black" fill-opacity="0" transform="translate(24.4048 4.2417)"/>
<path d="M29.5087 10.9425C29.5087 10.5532 29.3688 10.254 29.0933 10.0409C28.8177 9.83186 28.3201 9.61875 27.6045 9.40153C26.8889 9.18432 26.3172 8.94662 25.8936 8.68432C25.0834 8.17612 24.6762 7.51629 24.6762 6.70072C24.6762 5.9876 24.9682 5.39744 25.5522 4.93432C26.1362 4.47121 26.8971 4.2417 27.8266 4.2417C28.4476 4.2417 28.9987 4.35645 29.484 4.58186C29.9693 4.81137 30.3477 5.13514 30.6273 5.55317C30.9029 5.97531 31.0427 6.43842 31.0427 6.95072H29.5045C29.5045 6.4876 29.3565 6.12695 29.0686 5.86465C28.7766 5.60236 28.3612 5.47121 27.8183 5.47121C27.3125 5.47121 26.9218 5.57776 26.6421 5.79498C26.3624 6.01219 26.2226 6.31137 26.2226 6.69662C26.2226 7.02039 26.3748 7.29088 26.675 7.50809C26.9752 7.72531 27.4729 7.93432 28.1679 8.14334C28.8589 8.34826 29.4182 8.58186 29.8377 8.84416C30.2572 9.10645 30.5656 9.40563 30.763 9.7458C30.9604 10.086 31.055 10.4835 31.055 10.9384C31.055 11.6761 30.7713 12.2663 30.2037 12.7007C29.6362 13.1351 28.863 13.3565 27.8882 13.3565C27.2467 13.3565 26.6544 13.2376 26.1116 12.9999C25.5728 12.7622 25.1533 12.4343 24.8531 12.0163C24.5528 11.5983 24.4048 11.1106 24.4048 10.5532H25.9512C25.9512 11.0573 26.1198 11.4466 26.4529 11.7212C26.786 11.9958 27.2672 12.1351 27.8882 12.1351C28.427 12.1351 28.8301 12.0286 29.1015 11.8114C29.3729 11.586 29.5087 11.2991 29.5087 10.9425Z" fill="white"/>
<rect width="7.38643" height="9.11475" fill="black" fill-opacity="0" transform="translate(35.25 4.23755)"/>
<path d="M42.6323 9.02443C42.6323 9.89329 42.4801 10.6556 42.1799 11.3113C41.8797 11.9671 41.4479 12.4712 40.8885 12.8236C40.3292 13.1761 39.6835 13.3523 38.9556 13.3523C38.2358 13.3523 37.5901 13.1761 37.0267 12.8236C36.4633 12.4712 36.0273 11.9712 35.7189 11.3236C35.4104 10.6761 35.2541 9.92607 35.25 9.07771V8.57771C35.25 7.71296 35.4022 6.95066 35.7106 6.28673C36.0191 5.62279 36.4509 5.1187 37.0144 4.76624C37.5737 4.41378 38.2153 4.23755 38.9432 4.23755C39.6712 4.23755 40.3127 4.40968 40.8721 4.75804C41.4314 5.1064 41.8674 5.6064 42.1717 6.25804C42.476 6.90968 42.6323 7.66788 42.6364 8.53263V9.02443H42.6323ZM41.0859 8.56132C41.0859 7.57771 40.9009 6.82361 40.5266 6.30312C40.1524 5.77853 39.6259 5.51624 38.9391 5.51624C38.2728 5.51624 37.7464 5.77853 37.3722 6.29902C36.9938 6.81952 36.8046 7.55722 36.7923 8.51214V9.02443C36.7923 9.99984 36.9815 10.7539 37.3639 11.2826C37.7464 11.8154 38.2728 12.0818 38.9514 12.0818C39.6342 12.0818 40.1647 11.8236 40.5307 11.3031C40.9009 10.7826 41.0859 10.0244 41.0859 9.02443V8.56132Z" fill="white"/>
<rect width="7.05741" height="8.86475" fill="black" fill-opacity="0" transform="translate(43.9237 4.3606)"/>
<path d="M50.977 13.2254H49.4347L45.4701 6.93437V13.2254H43.9237V4.3606H45.4701L49.4471 10.6762V4.3606H50.9811V13.2254H50.977Z" fill="white"/>
</svg>
