<svg width="119" height="18" viewBox="0 0 119 18" fill="none" xmlns="http://www.w3.org/2000/svg">
<rect width="118.286" height="18" fill="black" fill-opacity="0"/>
<rect width="118.286" height="18" fill="black" fill-opacity="0"/>
<rect width="118.286" height="18" fill="black" fill-opacity="0"/>
<rect width="118.286" height="18" fill="black" fill-opacity="0"/>
<rect width="45.3468" height="18" fill="black" fill-opacity="0" transform="translate(72.939)"/>
<rect width="5.71256" height="9.08607" fill="black" fill-opacity="0" transform="translate(72.9389 4.50415)"/>
<path d="M78.38 6.79513C78.2155 6.74186 77.8659 6.70497 77.5122 6.70497C76.4635 6.70497 75.3366 7.55333 75.3366 8.59841V13.5902H72.9389V4.68448H75.242V5.58612C75.7767 4.92628 76.7514 4.50415 77.8413 4.50415C78.1908 4.50415 78.3924 4.54104 78.6515 4.57792L78.38 6.79513Z" fill="#23292F"/>
<rect width="3.13388" height="13.5943" fill="black" fill-opacity="0" transform="translate(79.5193)"/>
<path d="M81.0863 0C81.954 0 82.6532 0.659836 82.6532 1.52459C82.6532 2.38934 81.954 3.04918 81.0863 3.04918C80.2185 3.04918 79.5193 2.38934 79.5193 1.52459C79.5193 0.659836 80.2226 0 81.0863 0ZM82.2872 13.5943H79.8895V4.68443H82.2872V13.5943Z" fill="#23292F"/>
<rect width="9.31118" height="13.5" fill="black" fill-opacity="0" transform="translate(84.4463 4.5)"/>
<path d="M89.3651 4.5C88.3493 4.5 87.4486 4.83197 86.7494 5.40164V4.68443H84.4463V18H86.844V12.9672C87.5638 13.5205 88.3369 13.7746 89.2417 13.7746C90.5701 13.7746 91.841 13.1844 92.6347 12.2664C93.3339 11.459 93.7575 10.3566 93.7575 9.14344C93.7493 6.52049 91.7957 4.5 89.3651 4.5ZM89.0731 11.6066C87.5843 11.6066 86.6055 10.582 86.6055 9.15164C86.6055 7.72131 87.5843 6.69672 89.0731 6.69672C90.3439 6.69672 91.3721 7.79508 91.3721 9.15164C91.3721 10.5082 90.3439 11.6066 89.0731 11.6066Z" fill="#23292F"/>
<rect width="2.39771" height="13.0451" fill="black" fill-opacity="0" transform="translate(105.894 0.549316)"/>
<path d="M108.292 13.5944H105.894V0.549316H108.292V13.5944Z" fill="#23292F"/>
<rect width="8.5709" height="9.27459" fill="black" fill-opacity="0" transform="translate(109.715 4.5)"/>
<path d="M118.064 12.1762C117.196 13.2049 115.777 13.7746 114.395 13.7746C111.722 13.7746 109.715 11.9385 109.715 9.14754C109.715 6.66803 111.409 4.5 114.066 4.5C116.538 4.5 118.286 6.57377 118.286 9.05328C118.286 9.29098 118.265 9.53279 118.232 9.73361H112.038C112.166 10.9836 113.182 11.8443 114.453 11.8443C115.464 11.8443 116.279 11.2746 116.702 10.8156L118.064 12.1762ZM115.834 7.9918C115.76 7.20082 115.041 6.43033 114.066 6.43033C113.071 6.43033 112.261 7.18443 112.15 7.9918H115.834Z" fill="#23292F"/>
<rect width="9.31118" height="13.5" fill="black" fill-opacity="0" transform="translate(95.1723 4.5)"/>
<path d="M100.091 4.5C99.0752 4.5 98.1746 4.83197 97.4754 5.40164V4.68443H95.1723V18H97.57V12.9672C98.2897 13.5205 99.0629 13.7746 99.9677 13.7746C101.296 13.7746 102.567 13.1844 103.361 12.2664C104.06 11.459 104.483 10.3566 104.483 9.14344C104.479 6.52049 102.526 4.5 100.091 4.5ZM99.7991 11.6066C98.3103 11.6066 97.3314 10.582 97.3314 9.15164C97.3314 7.72131 98.3103 6.69672 99.7991 6.69672C101.07 6.69672 102.098 7.79508 102.098 9.15164C102.102 10.5082 101.07 11.6066 99.7991 11.6066Z" fill="#23292F"/>
<rect width="14.1148" height="15.2561" fill="black" fill-opacity="0" transform="translate(55.4846 1.04395)"/>
<rect width="14.1148" height="15.2561" fill="black" fill-opacity="0" transform="translate(55.4846 1.04395)"/>
<path d="M67.9996 10.3482C67.4567 10.0368 66.848 9.94661 66.2476 9.92612C65.7417 9.90972 64.985 9.58595 64.985 8.66792C64.985 7.98349 65.5402 7.43431 66.2476 7.40972C66.8521 7.38923 67.4608 7.29907 67.9996 6.98759C68.9866 6.41792 69.5994 5.36874 69.5994 4.2294C69.5994 3.09005 68.9907 2.04087 67.9996 1.4712C67.0125 0.901527 65.791 0.901527 64.804 1.4712C63.8169 2.04087 63.2042 3.09005 63.2042 4.2294C63.2042 4.84825 63.4262 5.41382 63.7059 5.94251C63.9403 6.38513 64.0637 7.2089 63.2494 7.67202C62.6448 8.02038 61.8922 7.79907 61.5179 7.20071C61.2013 6.69251 60.8188 6.2212 60.28 5.90972C59.293 5.34005 58.0715 5.34005 57.0844 5.90972C56.0974 6.4794 55.4846 7.52858 55.4846 8.66792C55.4846 9.80727 56.0933 10.8564 57.0844 11.4261C58.0715 11.9958 59.293 11.9958 60.28 11.4261C60.8147 11.1187 61.2013 10.6433 61.5179 10.1392C61.777 9.7253 62.431 9.19251 63.2494 9.66792C63.8498 10.0163 64.039 10.7745 63.7018 11.4015C63.4221 11.9261 63.2 12.4958 63.2 13.1146C63.2 14.254 63.8087 15.3032 64.7999 15.8728C65.7869 16.4425 67.0084 16.4425 67.9955 15.8728C68.9825 15.3032 69.5953 14.254 69.5953 13.1146C69.5994 11.9671 68.9907 10.9138 67.9996 10.3482Z" fill="url(#paint0_linear)"/>
<rect width="50.9812" height="9.11885" fill="black" fill-opacity="0" transform="translate(0 4.23755)"/>
<rect width="6.70783" height="8.86475" fill="black" fill-opacity="0" transform="translate(0 4.3606)"/>
<path d="M3.26961 9.81551H1.54638V13.2254H0V4.3606H3.12977C4.15795 4.3606 4.94759 4.5901 5.50692 5.04912C6.06625 5.50814 6.3418 6.17207 6.3418 7.04092C6.3418 7.63519 6.19786 8.13109 5.90997 8.53273C5.62208 8.93437 5.22314 9.24174 4.70905 9.45486L6.70783 13.1475V13.2254H5.05041L3.26961 9.81551ZM1.54638 8.57371H3.13389C3.6562 8.57371 4.06336 8.44256 4.35536 8.18027C4.64736 7.91797 4.79542 7.56141 4.79542 7.1065C4.79542 6.63109 4.6597 6.26223 4.38826 6.00404C4.11682 5.74584 3.71378 5.6106 3.17501 5.6024H1.54638V8.57371Z" fill="#23292F"/>
<rect width="6.65026" height="8.98771" fill="black" fill-opacity="0" transform="translate(7.67023 4.3606)"/>
<path d="M14.3205 4.3606V10.2868C14.3205 11.2294 14.0161 11.9754 13.4116 12.5245C12.807 13.0737 12.0009 13.3483 10.9933 13.3483C9.97335 13.3483 9.16725 13.0778 8.5668 12.5368C7.96634 11.9958 7.67023 11.2417 7.67023 10.2786V4.3606H9.21249V10.2909C9.21249 10.8852 9.36055 11.336 9.66489 11.6475C9.96512 11.959 10.4134 12.1147 10.9974 12.1147C12.186 12.1147 12.7823 11.4876 12.7823 10.2376V4.3606H14.3205Z" fill="#23292F"/>
<rect width="7.05741" height="8.86475" fill="black" fill-opacity="0" transform="translate(15.9738 4.3606)"/>
<path d="M23.0312 13.2254H21.4848L17.5202 6.93437V13.2254H15.9738V4.3606H17.5202L21.4972 10.6762V4.3606H23.0312V13.2254Z" fill="#23292F"/>
<rect width="6.65025" height="9.11475" fill="black" fill-opacity="0" transform="translate(24.4048 4.2417)"/>
<path d="M29.5087 10.9425C29.5087 10.5532 29.3689 10.254 29.0933 10.0409C28.8178 9.83186 28.3201 9.61875 27.6045 9.40153C26.8889 9.18432 26.3172 8.94662 25.8936 8.68432C25.0834 8.17612 24.6763 7.51629 24.6763 6.70072C24.6763 5.9876 24.9683 5.39744 25.5523 4.93432C26.1363 4.47121 26.8971 4.2417 27.8266 4.2417C28.4476 4.2417 28.9987 4.35645 29.484 4.58186C29.9693 4.81137 30.3477 5.13514 30.6273 5.55317C30.9029 5.97531 31.0427 6.43842 31.0427 6.95072H29.5046C29.5046 6.4876 29.3565 6.12695 29.0686 5.86465C28.7766 5.60236 28.3612 5.47121 27.8184 5.47121C27.3125 5.47121 26.9218 5.57776 26.6421 5.79498C26.3625 6.01219 26.2226 6.31137 26.2226 6.69662C26.2226 7.02039 26.3748 7.29088 26.675 7.50809C26.9753 7.72531 27.4729 7.93432 28.1679 8.14334C28.8589 8.34826 29.4182 8.58186 29.8377 8.84416C30.2572 9.10645 30.5657 9.40563 30.7631 9.7458C30.9605 10.086 31.0551 10.4835 31.0551 10.9384C31.0551 11.6761 30.7713 12.2663 30.2037 12.7007C29.6362 13.1351 28.863 13.3565 27.8883 13.3565C27.2467 13.3565 26.6545 13.2376 26.1116 12.9999C25.5728 12.7622 25.1533 12.4343 24.8531 12.0163C24.5529 11.5983 24.4048 11.1106 24.4048 10.5532H25.9512C25.9512 11.0573 26.1198 11.4466 26.4529 11.7212C26.7861 11.9958 27.2673 12.1351 27.8883 12.1351C28.427 12.1351 28.8301 12.0286 29.1015 11.8114C29.373 11.586 29.5087 11.2991 29.5087 10.9425Z" fill="#23292F"/>
<rect width="7.38643" height="9.11475" fill="black" fill-opacity="0" transform="translate(35.2501 4.23755)"/>
<path d="M42.6324 9.02443C42.6324 9.89329 42.4802 10.6556 42.18 11.3113C41.8798 11.9671 41.4479 12.4712 40.8886 12.8236C40.3293 13.1761 39.6836 13.3523 38.9556 13.3523C38.2359 13.3523 37.5902 13.1761 37.0268 12.8236C36.4633 12.4712 36.0274 11.9712 35.7189 11.3236C35.4105 10.6761 35.2542 9.92607 35.2501 9.07771V8.57771C35.2501 7.71296 35.4022 6.95066 35.7107 6.28673C36.0191 5.62279 36.451 5.1187 37.0144 4.76624C37.5737 4.41378 38.2153 4.23755 38.9433 4.23755C39.6712 4.23755 40.3128 4.40968 40.8721 4.75804C41.4315 5.1064 41.8674 5.6064 42.1718 6.25804C42.4761 6.90968 42.6324 7.66788 42.6365 8.53263V9.02443H42.6324ZM41.086 8.56132C41.086 7.57771 40.9009 6.82361 40.5267 6.30312C40.1524 5.77853 39.626 5.51624 38.9392 5.51624C38.2729 5.51624 37.7465 5.77853 37.3722 6.29902C36.9939 6.81952 36.8047 7.55722 36.7923 8.51214V9.02443C36.7923 9.99984 36.9815 10.7539 37.364 11.2826C37.7465 11.8154 38.2729 12.0818 38.9515 12.0818C39.6342 12.0818 40.1648 11.8236 40.5308 11.3031C40.9009 10.7826 41.086 10.0244 41.086 9.02443V8.56132Z" fill="#23292F"/>
<rect width="7.05741" height="8.86475" fill="black" fill-opacity="0" transform="translate(43.9238 4.3606)"/>
<path d="M50.9771 13.2254H49.4348L45.4701 6.93437V13.2254H43.9238V4.3606H45.4701L49.4471 10.6762V4.3606H50.9812V13.2254H50.9771Z" fill="#23292F"/>
<defs>
<linearGradient id="paint0_linear" x1="55.4914" y1="8.66525" x2="69.5992" y2="8.66525" gradientUnits="userSpaceOnUse">
<stop stop-color="#00B1F1"/>
<stop offset="1" stop-color="#0F72E5"/>
</linearGradient>
</defs>
</svg>
