<svg width="40" height="40" viewBox="0 0 40 40" fill="none" xmlns="http://www.w3.org/2000/svg">
<rect width="32" height="32" fill="black" fill-opacity="0" transform="translate(4 2)"/>
<rect width="32" height="32" fill="black" fill-opacity="0" transform="translate(4 2)"/>
<g filter="url(#filter0_d)">
<circle cx="20" cy="18" r="16" fill="white"/>
</g>
<rect width="15.6667" height="16" fill="black" fill-opacity="0" transform="translate(12 10)"/>
<line x1="18.6666" y1="11.3999" x2="26.6666" y2="11.3999" stroke="black" stroke-width="2" stroke-linecap="round"/>
<line x1="18.6666" y1="17.8" x2="26.6666" y2="17.8" stroke="black" stroke-width="2" stroke-linecap="round"/>
<line x1="18.6666" y1="24.2" x2="26.6666" y2="24.2" stroke="black" stroke-width="2" stroke-linecap="round"/>
<path fill-rule="evenodd" clip-rule="evenodd" d="M12 11.5999C12 10.7163 12.6964 10 13.5555 10C14.4147 10 15.1111 10.7163 15.1111 11.5999C15.1111 12.4836 14.4147 13.2 13.5555 13.2C12.6964 13.2 12 12.4836 12 11.5999ZM13.5555 16.4001C12.6964 16.4001 12 17.1165 12 18C12 18.8838 12.6964 19.6001 13.5555 19.6001C14.4147 19.6001 15.1111 18.8838 15.1111 18C15.1111 17.1165 14.4147 16.4001 13.5555 16.4001ZM13.5555 22.8C12.6964 22.8 12 23.5164 12 24.3999C12 25.2837 12.6964 26 13.5555 26C14.4147 26 15.1111 25.2837 15.1111 24.3999C15.1111 23.5164 14.4147 22.8 13.5555 22.8Z" fill="black"/>
<defs>
<filter id="filter0_d" x="0" y="0" width="40" height="40" filterUnits="userSpaceOnUse" color-interpolation-filters="sRGB">
<feFlood flood-opacity="0" result="BackgroundImageFix"/>
<feColorMatrix in="SourceAlpha" type="matrix" values="0 0 0 0 0 0 0 0 0 0 0 0 0 0 0 0 0 0 127 0"/>
<feOffset dy="2"/>
<feGaussianBlur stdDeviation="2"/>
<feColorMatrix type="matrix" values="0 0 0 0 0 0 0 0 0 0 0 0 0 0 0 0 0 0 0.25 0"/>
<feBlend mode="normal" in2="BackgroundImageFix" result="effect1_dropShadow"/>
<feBlend mode="normal" in="SourceGraphic" in2="effect1_dropShadow" result="shape"/>
</filter>
</defs>
</svg>
