<svg width="72" height="72" viewBox="0 0 72 72" fill="none" xmlns="http://www.w3.org/2000/svg">
<circle cx="36" cy="36" r="34.5" stroke="#FF3B30" stroke-width="3"/>
<path fill-rule="evenodd" clip-rule="evenodd" d="M28.9427 27.0571C28.4221 26.5365 27.5779 26.5365 27.0571 27.0571C26.5365 27.5778 26.5365 28.4221 27.0571 28.9428L34.1142 36L27.0571 43.0571C26.5365 43.5778 26.5365 44.4221 27.0571 44.9428C27.5779 45.4635 28.4221 45.4635 28.9427 44.9428L36 37.8856L43.0571 44.9428C43.5779 45.4635 44.4221 45.4635 44.9427 44.9428C45.4635 44.4221 45.4635 43.5778 44.9427 43.0571L37.8855 36L44.9427 28.9428C45.4635 28.4221 45.4635 27.5778 44.9427 27.0571C44.4221 26.5365 43.5779 26.5365 43.0571 27.0571L36 34.1143L28.9427 27.0571Z" fill="#FF3B30"/>
</svg>
